<?xml version="1.0" encoding="UTF-8"?>
<svg height="16px" viewBox="0 0 16 16" width="16px" xmlns="http://www.w3.org/2000/svg">
    <path d="m 7.988281 13.992188 c 3.308594 0 6 -2.691407 6 -6 c 0 -3.308594 -2.691406 -6 -6 -6 c -3.308593 0 -6 2.691406 -6 6 c 0 3.308593 2.691407 6 6 6 z m 0 -14.0000005 c 4.421875 0 8 3.5781245 8 8.0000005 c 0 4.421874 -3.578125 8 -8 8 s -7.9999998 -3.578126 -7.9999998 -8 c 0 -4.421876 3.5781248 -8.0000005 7.9999998 -8.0000005 z m 0 0" fill="#222222"/>
    <path d="m 11 4.996094 c 0 0.550781 -0.445312 1 -1 1 c -0.550781 0 -1 -0.449219 -1 -1 c 0 -0.550782 0.449219 -1 1 -1 c 0.554688 0 1 0.449218 1 1 z m 0 0" fill="#1e1a29"/>
</svg>
