<?xml version="1.0" encoding="UTF-8"?>
<svg height="128px" viewBox="0 0 128 128" width="128px" xmlns="http://www.w3.org/2000/svg" xmlns:xlink="http://www.w3.org/1999/xlink">
    <linearGradient id="a" gradientTransform="matrix(0.165034 0 0 0.354598 13.541475 275.374817)" gradientUnits="userSpaceOnUse" x1="88.595886" x2="536.595886" y1="-449.394012" y2="-449.394012">
        <stop offset="0" stop-color="#77767b"/>
        <stop offset="0.0500001" stop-color="#c0bfbc"/>
        <stop offset="0.099807" stop-color="#9a9996"/>
        <stop offset="0.900001" stop-color="#9a9996"/>
        <stop offset="0.950001" stop-color="#c0bfbc"/>
        <stop offset="1" stop-color="#77767b"/>
    </linearGradient>
    <linearGradient id="b" gradientUnits="userSpaceOnUse">
        <stop offset="0" stop-opacity="0.26"/>
        <stop offset="1" stop-color="#2e2e2e" stop-opacity="0"/>
    </linearGradient>
    <linearGradient id="c" x1="68.51228812713" x2="68.51228812713" xlink:href="#b" y1="59.64514978712" y2="62.75387229247"/>
    <linearGradient id="d" x1="68.42165112713" x2="68.42165112713" xlink:href="#b" y1="53.58688778711" y2="56.69561029247"/>
    <linearGradient id="e" x1="68.49175012713" x2="68.49175012713" xlink:href="#b" y1="47.21526178712" y2="50.32398429247"/>
    <linearGradient id="f" x1="68.39775512713" x2="68.39775512713" xlink:href="#b" y1="10.43833378711" y2="13.54705629247"/>
    <linearGradient id="g" x1="68.47090612713" x2="68.47090612713" xlink:href="#b" y1="16.24302278711" y2="19.35174529247"/>
    <linearGradient id="h" x1="68.53355912713" x2="68.53355912713" xlink:href="#b" y1="22.54404978712" y2="25.65277229247"/>
    <linearGradient id="i" x1="68.55971212713" x2="68.55971212713" xlink:href="#b" y1="28.82941778712" y2="31.93814029247"/>
    <linearGradient id="j" x1="68.49178012713" x2="68.49178012713" xlink:href="#b" y1="34.97892278712" y2="38.08764529247"/>
    <linearGradient id="k" x1="68.46565712713" x2="68.46565712713" xlink:href="#b" y1="41.08664378712" y2="44.19536629247"/>
    <linearGradient id="l" gradientTransform="matrix(0.840173 0 0 1.029273 317.44988 -186.55427)" gradientUnits="userSpaceOnUse" x1="-289.330353" x2="-270.325104" y1="271.105255" y2="271.167755">
        <stop offset="0" stop-color="#73aae8"/>
        <stop offset="0.12" stop-color="#99c1f1" stop-opacity="0.8"/>
        <stop offset="0.2" stop-color="#69a7f2"/>
        <stop offset="0.8" stop-color="#73aae8"/>
        <stop offset="0.88" stop-color="#99c1f1" stop-opacity="0.8"/>
        <stop offset="1" stop-color="#73aae8"/>
    </linearGradient>
    <path d="m 34.882812 8.222656 h 60.492188 c 3.714844 0 6.722656 3.710938 6.722656 8.292969 v 91.210937 c 0 4.582032 -3.007812 8.292969 -6.722656 8.292969 h -60.492188 c -3.710937 0 -6.71875 -3.710937 -6.71875 -8.292969 v -91.210937 c 0 -4.582031 3.007813 -8.292969 6.71875 -8.292969 z m 0 0" fill="url(#a)"/>
    <path d="m 34.882812 -0.0117188 h 60.492188 c 3.714844 0 6.722656 3.6874998 6.722656 8.2343748 v 94.691406 c 0 4.550782 -3.007812 8.234376 -6.722656 8.234376 h -60.492188 c -3.710937 0 -6.71875 -3.683594 -6.71875 -8.234376 v -94.691406 c 0 -4.546875 3.007813 -8.2343748 6.71875 -8.2343748 z m 0 0" fill="#dddcd9"/>
    <path d="m 35.226562 68.945312 h 59.699219 c 0.570313 0 1.03125 0.460938 1.03125 1.027344 c 0 0.570313 -0.460937 1.03125 -1.03125 1.03125 h -59.699219 c -0.566406 0 -1.027343 -0.460937 -1.027343 -1.03125 c 0 -0.566406 0.460937 -1.027344 1.027343 -1.027344 z m 0 0"/>
    <path d="m 75.25 63.839844 h 2.390625 c 1.136719 0 2.058594 0.921875 2.058594 2.058594 v 8.300781 c 0 1.140625 -0.921875 2.058593 -2.058594 2.058593 h -2.390625 c -1.136719 0 -2.058594 -0.917968 -2.058594 -2.058593 v -8.300781 c 0 -1.136719 0.921875 -2.058594 2.058594 -2.058594 z m 0 0" fill="#bfbbbb"/>
    <path d="m 75.265625 63.265625 h 2.386719 c 1.136718 0 2.058594 0.921875 2.058594 2.058594 v 8.300781 c 0 1.136719 -0.921876 2.058594 -2.058594 2.058594 h -2.386719 c -1.136719 0 -2.058594 -0.921875 -2.058594 -2.058594 v -8.300781 c 0 -1.136719 0.921875 -2.058594 2.058594 -2.058594 z m 0 0" fill="#ebeaea"/>
    <path d="m 64.609375 66.859375 h 1.027344 v 6.175781 h -1.027344 z m 0 0"/>
    <path d="m 85.71875 35.992188 c 0 11.367187 -9.214844 20.585937 -20.585938 20.585937 c -11.367187 0 -20.585937 -9.21875 -20.585937 -20.585937 c 0 -11.371094 9.21875 -20.585938 20.585937 -20.585938 c 11.371094 0 20.585938 9.214844 20.585938 20.585938 z m 0 0"/>
    <path d="m 28.160156 56.527344 h 73.929688 v 3.039062 h -73.929688 z m 0 0" fill="#e6e6e3"/>
    <path d="m 28.15625 59.570312 h 73.941406 v 1.023438 h -73.941406 z m 0 0" fill="url(#c)"/>
    <path d="m 28.164062 50.480469 h 73.933594 v 3.042969 h -73.933594 z m 0 0" fill="#e6e6e3"/>
    <path d="m 28.164062 53.519531 h 73.933594 v 1.027344 h -73.933594 z m 0 0" fill="url(#d)"/>
    <path d="m 28.171875 44.105469 h 73.933594 v 3.035156 h -73.933594 z m 0 0" fill="#e6e6e3"/>
    <path d="m 28.089844 47.148438 h 74.011718 v 1.019531 h -74.011718 z m 0 0" fill="url(#e)"/>
    <path d="m 28.167969 7.328125 h 73.929687 v 3.039063 h -73.929687 z m 0 0" fill="#e6e6e3"/>
    <path d="m 28.160156 10.367188 h 73.9375 v 1.019531 h -73.9375 z m 0 0" fill="url(#f)"/>
    <path d="m 28.167969 13.132812 h 73.929687 v 3.066407 h -73.929687 z m 0 0" fill="#e6e6e3"/>
    <path d="m 28.160156 16.175781 h 73.9375 v 1.027344 h -73.9375 z m 0 0" fill="url(#g)"/>
    <path d="m 28.164062 19.4375 h 73.9375 v 3.0625 h -73.9375 z m 0 0" fill="#e6e6e3"/>
    <path d="m 28.164062 22.476562 h 73.9375 v 1.019532 h -73.9375 z m 0 0" fill="url(#h)"/>
    <path d="m 28.164062 25.742188 h 73.9375 v 3.019531 h -73.9375 z m 0 0" fill="#e6e6e3"/>
    <path d="m 28.15625 28.761719 h 73.941406 v 1.035156 h -73.941406 z m 0 0" fill="url(#i)"/>
    <path d="m 28.164062 31.871094 h 73.933594 v 3.042968 h -73.933594 z m 0 0" fill="#e6e6e3"/>
    <path d="m 28.160156 34.910156 h 73.9375 v 1.019532 h -73.9375 z m 0 0" fill="url(#j)"/>
    <path d="m 28.164062 37.976562 h 73.9375 v 3.046876 h -73.9375 z m 0 0" fill="#e6e6e3"/>
    <path d="m 28.0625 41.019531 h 74.039062 v 1.027344 h -74.039062 z m 0 0" fill="url(#k)"/>
    <path d="m 46.582031 113.558594 c 0 0.992187 -1.382812 1.800781 -3.085937 1.800781 c -1.707032 0 -3.089844 -0.808594 -3.089844 -1.800781 c 0 -0.996094 1.382812 -1.800782 3.089844 -1.800782 c 1.703125 0 3.085937 0.804688 3.085937 1.800782 z m 0 0"/>
    <path d="m 25.078125 23.570312 h 3.085937 v 12.351563 h -3.085937 z m 0 0" fill="#2ec27e"/>
    <path d="m 25.078125 23.042969 h 3.085937 v 12.351562 h -3.085937 z m 0 0" fill="#57e389"/>
    <path d="m 25.078125 40.109375 h 3.089844 v 12.351563 h -3.089844 z m 0 0" fill="#c01c28"/>
    <path d="m 25.082031 39.5625 h 3.085938 v 12.351562 h -3.085938 z m 0 0" fill="#ed333b"/>
    <path d="m 43.453125 79.042969 c 0.570313 0 1.03125 0.460937 1.03125 1.03125 v 23.671875 c 0 0.570312 -0.460937 1.03125 -1.03125 1.03125 c -0.566406 0 -1.027344 -0.460938 -1.027344 -1.03125 v -23.671875 c 0 -0.570313 0.460938 -1.03125 1.027344 -1.03125 z m 0 0"/>
    <path d="m 46.609375 89.761719 c 0 1.707031 -1.382813 3.089843 -3.085937 3.089843 c -1.707032 0 -3.089844 -1.382812 -3.089844 -3.089843 s 1.382812 -3.085938 3.089844 -3.085938 c 1.703124 0 3.085937 1.378907 3.085937 3.085938 z m 0 0" fill="#bfbbbb"/>
    <path d="m 46.628906 89.273438 c 0 1.703124 -1.382812 3.085937 -3.085937 3.085937 c -1.707031 0 -3.089844 -1.382813 -3.089844 -3.085937 c 0 -1.707032 1.382813 -3.089844 3.089844 -3.089844 c 1.703125 0 3.085937 1.382812 3.085937 3.089844 z m 0 0" fill="#ebebeb"/>
    <path d="m 55.835938 78.945312 c 0.570312 0 1.03125 0.460938 1.03125 1.027344 v 23.675782 c 0 0.566406 -0.460938 1.027343 -1.03125 1.027343 c -0.566407 0 -1.027344 -0.460937 -1.027344 -1.027343 v -23.675782 c 0 -0.566406 0.460937 -1.027344 1.027344 -1.027344 z m 0 0"/>
    <path d="m 58.902344 97.785156 c 0 1.703125 -1.382813 3.085938 -3.089844 3.085938 c -1.703125 0 -3.085938 -1.382813 -3.085938 -3.085938 c 0 -1.707031 1.382813 -3.089844 3.085938 -3.089844 c 1.707031 0 3.089844 1.382813 3.089844 3.089844 z m 0 0" fill="#bfbbbb"/>
    <path d="m 58.921875 97.285156 c 0 1.707032 -1.382813 3.089844 -3.085937 3.089844 c -1.707032 0 -3.089844 -1.382812 -3.089844 -3.089844 c 0 -1.703125 1.382812 -3.085937 3.089844 -3.085937 c 1.703124 0 3.085937 1.382812 3.085937 3.085937 z m 0 0" fill="#ebeaea"/>
    <path d="m 78.449219 84.152344 h 8.234375 c 2.273437 0 4.117187 1.839844 4.117187 4.117187 v 8.230469 c 0 2.277344 -1.84375 4.117188 -4.117187 4.117188 h -8.234375 c -2.273438 0 -4.117188 -1.839844 -4.117188 -4.117188 v -8.230469 c 0 -2.277343 1.84375 -4.117187 4.117188 -4.117187 z m 0 0" fill="url(#l)"/>
    <path d="m 78.460938 83.109375 h 8.234374 c 2.273438 0 4.117188 1.84375 4.117188 4.117187 v 8.234376 c 0 2.273437 -1.84375 4.117187 -4.117188 4.117187 h -8.234374 c -2.273438 0 -4.117188 -1.84375 -4.117188 -4.117187 v -8.234376 c 0 -2.273437 1.84375 -4.117187 4.117188 -4.117187 z m 0 0" fill="#99c1f1"/>
    <path d="m 79.007812 97.003906 c 0 0.566406 -0.460937 1.027344 -1.03125 1.027344 c -0.566406 0 -1.027343 -0.460938 -1.027343 -1.027344 c 0 -0.570312 0.460937 -1.03125 1.027343 -1.03125 c 0.570313 0 1.03125 0.460938 1.03125 1.03125 z m 0 0" fill="#c0daf5"/>
</svg>
