<?xml version="1.0" encoding="UTF-8"?>
<!-- Created with Inkscape (http://www.inkscape.org/) -->
<svg width="128" height="128" version="1.1" viewBox="0 0 128 128" xmlns="http://www.w3.org/2000/svg">
 <path d="m14.479 12.251v103.58h98.753v-103.58zm50.574 12.303c0.06687-9.6e-4 0.13428 6.06e-4 0.20206 0.0057 0.65315 0.0506 1.3052 0.11891 1.9467 0.25683 0.85078 0.18555 1.682 0.43272 2.5166 0.67903 0.96693 0.30291 1.923 0.63996 2.8825 0.96532 1.1536 0.37042 2.3086 0.74248 3.4411 1.1736 1.1222 0.47196 2.2532 0.92267 3.3652 1.4185 1.1913 0.55719 2.3443 1.1881 3.4525 1.8976 1.1436 0.7803 2.3425 1.4987 3.3455 2.4634 1.0879 1.0402 2.0866 2.1693 2.8531 3.4727 0.74965 1.2915 1.3659 2.6453 1.8655 4.0535 0.46786 1.3825 0.8645 2.7945 1.1038 4.2359 0.23892 1.3673 0.41241 2.7526 0.31419 4.1434-0.0704 1.2768-0.17002 2.5543-0.41393 3.8117-0.27353 1.3495-0.58945 2.705-1.1343 3.9739-0.64255 1.3921-1.3806 2.7409-2.2614 3.9982-1.0503 1.3816-2.1524 2.7317-3.4949 3.8447-1.4028 1.1234-2.8716 2.1508-4.5077 2.912-1.7127 0.84103-3.4955 1.5117-5.3309 2.0366-1.8754 0.50699-3.7838 0.88754-5.7159 1.1017-1.8576 0.16478-3.7194 0.27451-5.5836 0.13229-1.8443-0.09793-3.6905-0.23091-5.5087-0.57102-1.7555-0.3476-3.5133-0.72138-5.1811-1.3875-1.5877-0.61907-3.1573-1.2963-4.6147-2.1869-1.3804-0.80109-2.7615-1.6042-4.07-2.5203-1.2202-0.89372-2.368-1.8743-3.4396-2.943-0.98-1.025-1.9298-2.0825-2.7363-3.2525-0.71516-1.1377-1.4201-2.291-1.9348-3.5362-0.46884-1.2362-0.82557-2.5086-1.0139-3.8199-0.1977-1.2909-0.28092-2.5922-0.21808-3.8985 0.0836-1.1197 0.30797-2.2107 0.54002-3.3078 0.1979-0.88601 0.41704-1.7727 0.72037-2.6288 0.30486-0.81504 0.61487-1.6241 1.0826-2.3642 0.45371-0.71414 0.9207-1.4223 1.4082-2.1136 0.52386-0.70623 1.0795-1.3893 1.6826-2.0299 0.64072-0.71098 1.2816-1.4271 2.051-2.004 0.7495-0.58051 1.5229-1.1311 2.3559-1.587 0.83546-0.50067 1.7001-0.96029 2.6076-1.3172 0.90855-0.37587 1.8347-0.70911 2.7797-0.98185 0.8606-0.27563 1.7335-0.51423 2.589-0.80564 0.9095-0.3047 1.8402-0.52888 2.7585-0.80408 0.79614-0.20773 1.5805-0.45631 2.3673-0.6966 0.7812-0.20295 1.5518-0.45102 2.3523-0.57258 0.60082-0.07604 1.2018-0.16464 1.8066-0.18759 0.28594-0.4087 0.74114-0.68689 1.3984-0.8139 0.45483-0.09988 0.90291-0.23927 1.371-0.24598zm0.82941 3.7987c0.04986 0.45879 0.1835 0.89177 0.28887 1.3415 0.12739 0.57193 0.18665 1.1559 0.22841 1.7394 0.03273 0.56506 0.03979 1.1312 0.04599 1.6971 0.02249 0.66041 0.01127 1.3125-0.09767 1.9653-0.07877 0.42726-0.15433 0.85566-0.20102 1.2878-0.02213 0.21776-0.03938 0.4359-0.05478 0.65422l-0.0031 0.04806c-0.25006 3.6667-3.9544 3.4139-3.7036-0.2527l0.0036-0.05684c0.01906-0.26937 0.04057-0.5386 0.06873-0.80719 0.05816-0.50584 0.13758-1.0092 0.23254-1.5095 0.0797-0.42221 0.04069-0.85489 0.04289-1.2883-0.0054-0.49293-0.01066-0.98611-0.03669-1.4785-0.02622-0.38628-0.06235-0.7732-0.14056-1.1529-0.09405-0.4027-0.20999-0.8016-0.27647-1.2097-0.44691 0.02625-0.89074 0.09758-1.3358 0.154-0.63663 0.12129-1.2536 0.31717-1.8795 0.48162-0.78286 0.24771-1.5697 0.48526-2.3637 0.69505-0.83183 0.26065-1.684 0.44398-2.5084 0.72916-0.87133 0.30226-1.7648 0.53708-2.6412 0.8232-0.84553 0.24662-1.6801 0.53261-2.4918 0.87488-0.73669 0.28935-1.4424 0.6573-2.1177 1.0692-0.70748 0.383-1.3641 0.84661-1.9973 1.3405-0.59407 0.44496-1.0764 1.009-1.5704 1.5575-0.51661 0.5528-1.0052 1.1328-1.45 1.7451-0.43197 0.62252-0.85714 1.2524-1.2594 1.895-0.3307 0.52459-0.529 1.1026-0.74311 1.679-0.2378 0.69571-0.41782 1.413-0.57361 2.1317-0.16832 0.91628-0.41527 1.8176-0.46147 2.7513-0.03814 1.0318 0.01498 2.0597 0.18138 3.0784 0.1511 1.0544 0.43058 2.0793 0.8139 3.0711 0.43888 1.0118 1.0222 1.9536 1.6092 2.8846 0.68188 0.95257 1.4681 1.8187 2.2769 2.6634 0.92234 0.90777 1.8991 1.7505 2.9456 2.511 1.2061 0.83622 2.4765 1.5719 3.745 2.3079 1.2918 0.79245 2.685 1.3922 4.0954 1.9373 1.466 0.58445 3.0136 0.90218 4.5563 1.2061 1.6458 0.30282 3.3167 0.41822 4.9852 0.50591 1.6896 0.13417 3.3758 0.02684 5.0591-0.12299 1.7135-0.19862 3.4083-0.53205 5.0715-0.9865 1.6026-0.46655 3.1664-1.0404 4.6612-1.7828 1.3947-0.64167 2.6361-1.5195 3.8261-2.4779 1.101-0.9279 1.9971-2.0547 2.8634-3.1957 0.70617-1.0454 1.3216-2.1499 1.8423-3.2985 0.41265-1.0123 0.65655-2.0889 0.8692-3.159 0.20628-1.0833 0.28714-2.1841 0.34675-3.2835 0.07859-1.1054-0.06599-2.2068-0.262-3.2923-0.20986-1.2536-0.54942-2.4846-0.96273-3.6856-0.42312-1.1724-0.92577-2.3059-1.5575-3.3802-0.59389-0.9961-1.3615-1.861-2.203-2.652-0.86841-0.8135-1.9021-1.4207-2.8815-2.0882-0.94368-0.5924-1.9165-1.1313-2.9275-1.5994-1.0704-0.47327-2.1573-0.90821-3.2365-1.3612-1.0347-0.38202-2.0844-0.72559-3.1352-1.0609-0.95162-0.3193-1.8968-0.65922-2.8556-0.95653-0.73021-0.21341-1.4553-0.43514-2.1993-0.59583-0.17604-0.03743-0.3534-0.06701-0.53123-0.09147zm39.683 45.566c0.42021 0.0028 0.8399 0.03515 1.2557 0.11369 1.1017 0.33036 1.7106 0.98368 1.8428 2.1136-0.01 0.56574-0.0723 1.1124-0.21756 1.6614-0.0857 0.35182-0.0231 0.74437-0.0413 1.1172v1.6319c0 0.64687 1e-5 1.2936 0 1.9404-1e-5 0.67497-4.3e-4 1.3497-5.1e-4 2.0247-1.1e-4 0.6881 1.8e-4 1.3764-5.2e-4 2.0645 0 0.56134-1e-3 1.1228-6e-3 1.6841-5e-3 0.51015-9e-3 1.021-0.0527 1.5296-0.11226 0.84704-0.47895 1.6263-1.2909 2.0071-0.634 0.23586-1.2536 0.27436-1.9198 0.2005-0.75818-0.04464-1.5164-0.10333-2.2681-0.21497-0.57391-0.09302-1.139-0.16049-1.7239-0.13953-0.84782-0.0337-1.6952-0.0827-2.5399-0.16381-0.81498-0.0797-1.6281-0.19821-2.4489-0.16485-0.71087-0.0019-1.4219-0.0024-2.1327-0.01499-0.57245-0.01438-1.1492-0.02166-1.6955-0.21756-0.98339-0.58325-1.5143-1.1195-1.2676-2.4324 0.0699-0.29617 0.17378-0.58016 0.30954-0.85214 0.019-0.12516 0.03632-0.23268 0.03927-0.2434h5.17e-4c-6.8e-5 0.0047-0.0042 0.03539-0.01395 0.10232 0.05216-0.35514 0.13064-0.70458 0.25425-1.0423 0.04813-0.13026 0.07921-0.2023 0.09819-0.2372 0.0063-0.05006 0.01626-0.11881 0.03152-0.21187 0.04629-0.40934 0.10918-0.81659 0.17828-1.2227 0.06698-0.31856-0.07279-0.79935-0.10594-1.1798-0.14245-0.89417-0.29926-1.7868-0.34262-2.6929-0.08983-0.96189-0.21073-1.9243-0.17932-2.8923 0.01322-0.40728 0.07056-0.76929 0.16226-1.0862-0.94725-1.0967-0.15717-2.851 2.3694-2.851 0.08082-1e-6 0.16154 4e-6 0.24236 0 0.15527-7e-6 0.31034 2.3e-5 0.4656 0 0.26906-5.8e-5 0.53813-3.72e-4 0.80718-5.17e-4 0.45886-4e-4 0.9178-8.34e-4 1.3767-0.0021 0.68422-0.0018 1.3684-0.0047 2.0526-0.01137 0.89979-0.0099 1.7998-0.02346 2.6991-0.05788 0.93604-0.03884 1.8715-0.09201 2.8029-0.19637 0.41898-0.03931 0.83967-0.06589 1.2599-0.06305zm-0.84232 3.7527c-0.0206 2e-3 -0.0409 0.0036-0.0615 0.0057-0.99841 0.1109-2.0012 0.16834-3.0045 0.21032-0.93709 0.03615-1.8751 0.05061-2.8127 0.06098-0.69451 0.0068-1.3891 0.0095-2.0836 0.01137-0.46138 0.0012-0.92252 0.0018-1.3839 0.0021-0.11117 6e-5 -0.22266-3.9e-5 -0.33383 0 5.42e-4 0.07349-3.48e-4 0.14861-0.0031 0.22531-0.03062 0.85275 0.08413 1.6998 0.1633 2.5471 0.03424 0.82674 0.18225 1.6389 0.31213 2.4541 0.13128 0.7414 0.20475 1.477 0.12299 2.2273-0.05736 0.38816-0.13046 0.77378-0.17105 1.1643 0.01673 0.36432-0.12744 0.69468-0.24236 1.0289 0.31267 0.0015 0.62526 0.0023 0.93793 0.0031 0.93808-0.03358 1.8689 0.09143 2.8003 0.18242 0.77342 0.07386 1.5492 0.11834 2.3254 0.14883 0.73138-0.0136 1.4511 0.06828 2.1714 0.185 0.4067 0.0581 0.81528 0.09816 1.2247 0.12919 9e-5 -0.0086 4.2e-4 -0.01725 5.1e-4 -0.02584 5e-3 -0.54999 5e-3 -1.1 6e-3 -1.65 7e-4 -0.68667 9.6e-4 -1.3737 1e-3 -2.0603 8e-5 -0.6748-1e-5 -1.3494 0-2.0242 1e-5 -0.64684 0-1.2936 0-1.9404v-1.6319c-0.0124-0.421-8e-3 -0.83782 0.031-1.2532zm-32.304 3.7171c0.09757 0.0034 0.19771 0.01212 0.29972 0.02636 0.64751 0.07676 1.2951 0.15271 1.9404 0.2465 1.3108 0.19051 2.0808 0.78931 2.3595 1.4531 0.29751 0.38555 0.39692 0.74854 0.36432 1.5172-0.1174 0.2932-0.1942 0.6062-0.35243 0.87953-0.22417 0.38724-0.67703 0.63462-1.0382 0.87178-0.68029 0.315-1.3808 0.50116-2.1394 0.34003-0.75485-0.14267-1.504-0.334-2.1497-0.77101-0.63099-0.50608-1.2037-1.1056-1.3911-1.9249-0.29646-1.5531 0.64328-2.6901 2.1068-2.6386zm-42.262 1.7678c1.4766 0.09846 2.1575 0.91063 2.049 1.756 1.2926 1.0798 0.79004 2.7735-1.0201 2.9864v10.43c0.0086 0.75415-0.1393 1.4985-0.22273 2.2459-0.06727 0.57389-0.09545 1.1515-0.11679 1.7286-0.01609 0.50346-0.02236 1.0068-0.02636 1.5105-0.0099 0.26867 0.09486 0.53896 0.16123 0.83405 0.08921 0.41485 0.13004 0.83716 0.16485 1.2594 0.02084 0.28726 0.02842 0.5751 0.03359 0.86299 0.01249 0.0266 0.02648 0.0601 0.04289 0.10077 0.14839 0.38851 0.22528 0.79565 0.27647 1.2066-3e-3 -0.0187-0.0048-0.0288-0.0057-0.0315h-5.16e-4c-5.84e-4 4e-3 0.0028 0.0403 0.0083 0.0899 0.02356 0.0597 0.05192 0.13757 0.0739 0.18965 0.14014 0.29241 0.21723 0.60757 0.27699 0.9245 0.01698 0.084 0.02948 0.1683 0.03927 0.25321 1.2982 0.11931 2.559 0.28633 1.2035 1.4661-0.06041 0.0526-0.12166 0.10456-0.18552 0.15296-0.48112 0.35759-1.0102 0.5923-1.6211 0.6227h-0.32453c-0.08575 0.0601-0.17497 0.11359-0.26665 0.15917-0.31568 0.14154-0.65533 0.19167-0.99839 0.20567-0.34706 0.0846-0.92701-0.21982-1.2077-0.29662-0.19519-0.0202-0.39305-0.0365-0.59014-0.0455-0.26032-0.0118-0.52082-0.0151-0.78135-0.0191l-0.55862-3e-3c-3.21e-4 -0.0106-9.4e-4 -0.021-1e-3 -0.0315-0.34603-0.0911-0.22062-0.42287-0.10025-1.588-0.14314-1.491-0.32023-1.9202 0.11524-2.0438 2.09e-4 -0.0163 3.35e-4 -0.0326 5.16e-4 -0.0491 0.14263 7.2e-4 0.28526 1e-3 0.42788 2e-3 0.13997-4e-3 0.30568-3e-3 0.50074-3e-3h0.18758c-0.13973-0.378-0.24629-0.76932-0.22376-1.1782-0.0037-0.21439-0.0081-0.42882-0.0217-0.64286-0.02047-0.25083-0.03978-0.50173-0.08682-0.7493-0.12379-0.5521-0.28446-1.1046-0.25166-1.6774 0.0043-0.53993 0.01132-1.0798 0.02894-1.6195 0.02517-0.66941 0.05904-1.3388 0.13694-2.0045 0.06895-0.6098 0.19119-1.2178 0.19999-1.8309v-10.959c-0.12847-0.02465-0.25632-0.05279-0.38344-0.08475-0.22352-0.04836-0.62564-0.05164-0.97824-0.04444-0.0384-4.68e-4 -0.07595-0.0037-0.11266-0.0093-0.33969 0.01001-0.58707-0.23003-0.74362-0.59221-0.61753-1.0756-0.47765-3.2097 0.63872-3.13 0.40246-0.02715 0.80507-0.0568 1.2066-0.09508 0.79182-0.08379 1.5801-0.20013 2.3745-0.2558 0.24344-0.01706 0.47067-0.01717 0.68161-0.0031zm15.508 0.07028c0.30842 0 0.61706 0.10146 0.89142 0.30437h1.5591c3.6752 0 3.6752 3.7124 0 3.7124h-0.59428v1.2883c-0.04197 0.82736 0.07423 1.6461 0.16071 2.4665 0.04207 0.79301 0.15497 1.5734 0.27182 2.3575 0.13074 0.88924 0.19576 1.7855 0.24184 2.6825 0.03721 0.80669 0.04833 1.6141 0.05633 2.4216 0.0063 0.76283 0.0084 1.5259 0.0098 2.2888 0.0011 0.63622 0.0013 1.2727 0.0015 1.9089 1.56e-4 0.55706 4.86e-4 1.1136 5.17e-4 1.6707 2.1e-5 0.45303-4e-6 0.90606 0 1.3591 3e-6 0.34829 0 0.69661 0 1.0449 1e-6 0.25522 0 0.51063 0 0.76585v0.50953c0.22352 0.0102 0.44704 0.0155 0.67076 0.0196 0.1212 2e-3 0.2426 4e-3 0.3638 5e-3 0.01835 2e-4 0.03644 3.4e-4 0.05478 5.2e-4 3.675 0.0359 3.6404 3.7483-0.03462 3.7124-0.02002-2e-4 -0.03992-2.9e-4 -0.05994-5.1e-4 -0.13019-1e-3 -0.26049-3e-3 -0.39067-5e-3 -0.31955-6e-3 -0.63894-0.0148-0.95808-0.0326-0.28314-0.0168-0.5661-0.0392-0.84801-0.0698-0.10844 0.0305-0.22196 0.0474-0.34055 0.047-0.28395-7e-4 -0.56659-0.0324-0.85008-0.0486-0.24858-0.10706-0.50306-0.14895-0.7674-0.18655-0.29349-0.033-0.58863-0.0476-0.88367-0.0579-0.63112 0.0246-1.1996-0.19999-1.7027-0.56069-0.20891-0.28335-0.55148-0.5062-0.62684-0.85008-0.40638-1.8546 0.90735-2.889 2.558-2.5347 0.0341 0.0105 0.06844 0.0199 0.10284 0.0289v-0.74207c0-0.34828 3e-6 -0.69662 0-1.0449-4e-6 -0.45297-4.95e-4 -0.90612-5.16e-4 -1.3591-3.1e-5 -0.55671 1.55e-4 -1.1129 0-1.6697-2e-4 -0.63434-2.55e-4 -1.2689-0.0016-1.9032-0.0014-0.75295-0.0036-1.5058-0.0098-2.2588-0.0074-0.75652-0.01745-1.5132-0.05168-2.2691-0.03937-0.77766-0.09374-1.5549-0.20619-2.326-0.1239-0.83584-0.24318-1.67-0.29146-2.5146-0.1-0.94924-0.22252-1.8982-0.18138-2.8551v-1.2886h-0.14624c-3.6752 0-3.6752-3.7124 0-3.7124h1.111c0.27435-0.20292 0.583-0.30437 0.89142-0.30437zm48.707 12.19h5.17e-4c0.1312-0.0076 0.2634-0.0061 0.39688 0.0052 0.39213 0.0094 0.78449 0.02457 1.1756 0.05478 0.58555 0.04707 1.1699 0.11421 1.7467 0.22789 0.49316 0.09685 0.97881 0.1596 1.4841 0.15968 0.68385 0.0525 1.3669 0.12141 2.0428 0.24081 0.58803 0.09489 1.181 0.06791 1.7756 0.0956 0.70467 0.03528 1.4213 0.06917 2.0846 0.33435 0.77044 0.39526 1.4638 0.89 1.4738 1.9523 3e-3 0.06893 0.0116 0.23041 6e-3 0.23151 0.0141 0.10657 0.0331 0.21553 0.0439 0.32039 0.1374 0.47405 0.29813 0.94568 0.31833 1.4438-2e-5 0.39353 1e-4 0.78676 0 1.1803-1.1e-4 0.48055-4.2e-4 0.96122-1e-3 1.4418-1e-3 0.67888-3e-3 1.3577-7e-3 2.0366-6e-3 0.87088-0.0129 1.7422-0.0388 2.6128-0.0301 0.81803-0.0624 1.6385-0.18862 2.4484-0.0989 0.5675-0.18164 0.76998-0.21704 1.2614-0.20201 0.95546-0.81571 1.7344-1.9218 1.7761-0.16241 0.0102-0.32544 0.0188-0.48628 0.0444-0.42954 0.0633-0.85745 0.13593-1.2852 0.21033-0.72845 0.0993-1.455 0.0981-2.188 0.0455-0.69336-0.0413-1.3867-0.0951-2.0727-0.20722-0.61534-0.0973-1.2228-0.13874-1.8485-0.10284-0.84461 0-1.6891-3.9e-4 -2.5337-4e-3 -0.5979-5e-3 -1.2088 0.0194-1.7849-0.16743-0.20992-0.11344-0.50441-0.13731-0.62942-0.34055-0.75709-1.2309-0.81565-1.3084-0.64596-2.1198 0.06287-0.30022 0.13077-0.59944 0.22221-0.89245 0.03921-0.13556 0.04089-0.56943 0.03359-0.85834v-8.7571c0-0.49224 0.06655-0.9181 0.1819-1.2785-0.50932-0.8509-0.1559-2.2007 1.5642-3.0365 0.05171-0.02512 0.10332-0.04981 0.15503-0.07493 0.36668-0.15788 0.74948-0.26144 1.1431-0.28422zm-25.921 1.8505v5.17e-4h0.4253c0.22732 2e-6 0.45481 5.08e-4 0.68213 5.16e-4 0.35074 1.7e-5 0.70139-7.2e-5 1.0521 0 0.4002 1.02e-4 0.80024 5e-6 1.2004 5.17e-4 0.48011 7e-4 0.96012 0.0015 1.4402 0.0047 0.55284 0.0044 1.1057 0.01086 1.6583 0.02946 0.65364 0.02507 1.3081 0.05813 1.9575 0.14004 0.5163 0.06413 1.03 0.17603 1.5446 0.20981 1.6357 0.05726 1.6432 0.23008 2.5218 1.9782v0.96996c-1e-6 0.24739 1e-6 0.49469 0 0.74208-2e-6 0.34468 1.1e-5 0.68936 0 1.034-1.4e-5 0.42157 8.1e-5 0.84295 0 1.2645-1e-4 0.44116-5.89e-4 0.88226-1e-3 1.3234-8e-4 0.55191-0.0017 1.1038-0.0052 1.6557-0.0046 0.65969-0.01128 1.3198-0.03204 1.9792-0.0261 0.68155-0.04956 1.3694-0.21446 2.0345-0.1262 0.39292-0.09084 0.33177-0.2682 0.69453-0.0029 6e-3 -0.06247 0.11197-0.11265 0.19896-8.24e-4 2e-3 -0.0018 4e-3 -0.0026 6e-3 -4e-3 7e-3 -0.0084 0.012-0.0124 0.0186-0.02697 0.0462-0.05581 0.0952-0.05374 0.0879 0.0017-6e-3 0.0045-0.0116 0.0062-0.0176-0.44726 0.72664-0.96788 1.2782-1.958 1.2376-0.12009 0-0.24009 5.2e-4 -0.36018 1e-3 -0.22571 1e-3 -0.45181 3e-3 -0.67748 8e-3 -0.32488 8e-3 -0.64938 0.0213-0.97358 0.0439-0.61944 0.0415-1.2377 0.0978-1.8536 0.17622-0.71086 0.0911-1.4204 0.17777-2.1389 0.14107-0.56409 1e-5 -1.1283-1e-5 -1.6924 0-0.59642 0-1.1926 3e-5 -1.789 0-0.53722-6e-5 -1.0746-1.5e-4 -1.6118-1e-3 -0.44242-1e-3 -0.88587 5e-3 -1.3276-0.0238-0.99841-0.11811-1.9997-0.68633-1.9988-1.9885v-0.48938c1e-6 -0.25484-5e-6 -0.50945 0-0.76429 8e-6 -0.33508-3.8e-5 -0.67003 0-1.0051 5.7e-5 -0.44164 2.62e-4 -0.88333 5.17e-4 -1.325 3e-4 -0.46578 6.36e-4 -0.93154 0.0026-1.3973 0.0023-0.50463 0.0049-1.0096 0.01602-1.5141 0.01567-0.61895 0.03649-1.2378 0.08475-1.8552 0.0602-0.76778 0.13913-1.5342 0.25373-2.296 0.29341-1.9503 1.488-2.7025 2.4474-2.4195 0.07301-0.06888 0.1504-0.13749 0.23203-0.20567l0.05478-0.04599c0.45695-0.37329 0.84539-0.57582 1.5033-0.63252zm26.495 1.8733c0.06101 0.28348 0.09508 0.60009 0.09508 0.95033v8.7571c0.0082 0.22441 0.0083 0.44692-0.0015 0.66869 0.54269 1e-3 1.0856 8.9e-4 1.6283 1e-3 0.81623-0.0363 1.6207 0.0218 2.4262 0.14883 0.56663 0.0926 1.1399 0.13445 1.7126 0.16795 0.48649 0.0257 0.96775 0.0578 1.4485-0.015 0.24986-0.0453 0.50018-0.0878 0.75086-0.12815 8e-3 -0.0403 0.015-0.0792 0.0212-0.11628 0.0918-0.64781 0.11325-1.3034 0.13695-1.9565 0.0242-0.83366 0.0307-1.6677 0.0367-2.5016 5e-3 -0.67244 6e-3 -1.345 7e-3 -2.0174 6.3e-4 -0.47909 9.5e-4 -0.95804 1e-3 -1.4371 9e-5 -0.35742-2e-5 -0.71486 0-1.0723-1e-3 9e-3 -3e-3 0.0153-5e-3 0.0181l-5.2e-4 5.2e-4 -5.2e-4 5.1e-4 -5.1e-4 5.2e-4h-0.00104l-5.1e-4 5.2e-4h-0.00104l-5.1e-4 -5.2e-4 -5.2e-4 -5.2e-4h-5.2e-4c-0.0379-0.0268-0.14017-0.46547-0.16071-0.5364-0.0129-0.0485-0.0245-0.09734-0.0357-0.14624-0.10205-0.0094-0.17876-0.01709-0.18862-0.01757-0.72442-0.01129-1.4426-0.0272-2.1601-0.13488-0.58148-0.10429-1.1689-0.16404-1.7575-0.20826-0.64622-0.0083-1.2813-0.09442-1.9146-0.21756-0.43822-0.08559-0.88216-0.13636-1.3271-0.17053-0.2354-0.01789-0.47154-0.02945-0.70745-0.03721zm-26.495 1.8402c-0.25575 0.40309 0.14438 0.20478 0.48783 0h-0.06253zm0.5886 0c-0.42558 0.31753-0.83802 0.51673-1.2206 0.61805-0.06677 0.51748-0.11748 1.0368-0.15761 1.557-0.04303 0.55272-0.06099 1.1068-0.07493 1.6609-0.01032 0.47906-0.01279 0.95848-0.01499 1.4376-0.0019 0.46095-0.0022 0.9219-0.0026 1.3829-2.55e-4 0.44088-4.61e-4 0.88152-5.17e-4 1.3224-2.1e-5 0.18623 8e-6 0.37239 0 0.55862 0.40864 4.2e-4 0.81713 4.7e-4 1.2258 5.2e-4 0.59628 3e-5 1.1928 0 1.789 0 0.5641-1e-5 1.1283 1e-5 1.6924 0 0.56377 0.0412 1.1105-0.0393 1.6671-0.11059 0.68994-0.088 1.3825-0.15164 2.0764-0.19844 0.37708-0.0263 0.7549-0.0421 1.1327-0.0512 0.01571-0.23262 0.02492-0.46564 0.03359-0.69866 0.01902-0.62134 0.02516-1.2429 0.02946-1.8645 0.0035-0.54507 0.0044-1.0905 0.0052-1.6356 5.45e-4 -0.43965 1e-3 -0.87912 1e-3 -1.3188 8.1e-5 -0.42133-1.4e-5 -0.84267 0-1.264 1.1e-5 -0.34465-2e-6 -0.68939 0-1.034v-0.0956c-0.26886-0.0419-0.53738-0.0866-0.80719-0.11938-0.54586-0.0686-1.096-0.0945-1.6454-0.11523-0.51538-0.0174-1.0311-0.0224-1.5467-0.0264-0.47218-3e-3 -0.94426-4e-3 -1.4165-5e-3 -0.39862-5.1e-4 -0.79717-4.1e-4 -1.1958-5.1e-4 -0.35049-7e-5 -0.70113 1e-5 -1.0516 0-0.17283-1e-5 -0.34548 0-0.51832 0zm-24.131 9.2511c0.0286 0.0734 0.06013 0.15016 0.09147 0.22634 0.0019-2e-3 0.0038-5e-3 0.0057-7e-3 -0.02912-0.0669-0.06197-0.13886-0.09715-0.21911zm49.752 1.401c-0.0041 0.0444-0.0038 0.0692-0.0026 0.0744v5.2e-4h0.001033v-5.2e-4c0.0015-6e-3 0.0032-0.0311 0.0016-0.0744z" fill="#0a0" stroke-width=".26458"/>
</svg>
